<?xml version="1.0" encoding="utf-8"?>
<!-- Svg Vector Icons : http://www.onlinewebfonts.com/icon -->
<!DOCTYPE svg PUBLIC "-//W3C//DTD SVG 1.1//EN" "http://www.w3.org/Graphics/SVG/1.1/DTD/svg11.dtd">
<svg version="1.1" xmlns="http://www.w3.org/2000/svg" xmlns:xlink="http://www.w3.org/1999/xlink" x="0px" y="0px" viewBox="0 0 256 256" enable-background="new 0 0 256 256" xml:space="preserve">
<metadata> Svg Vector Icons : http://www.onlinewebfonts.com/icon </metadata>
<g> <path fill="#000000" d="M217.2,92.4H13.5v15.5h203.8V92.4z M64.3,71c-4.3,0-7.7-3.5-7.7-7.7V26.5c0-4.3,3.5-7.7,7.7-7.7 c4.3,0,7.7,3.5,7.7,7.7v36.8C72,67.5,68.5,71,64.3,71z M39.1,136.9c0-4.3,3.5-7.7,7.7-7.7h36.8c4.3,0,7.7,3.5,7.7,7.7 s-3.5,7.7-7.7,7.7H46.9C42.6,144.6,39.1,141.2,39.1,136.9z M186.7,152.1c4.3,0,7.7,3.5,7.7,7.7v19.6c0,4.3-3.5,7.7-7.7,7.7 c-4.3,0-7.7-3.5-7.7-7.7v-19.7C178.9,155.5,182.4,152.1,186.7,152.1z M214.7,180.4c0,4.3-3.5,7.7-7.7,7.7h-19.7 c-4.3,0-7.7-3.5-7.7-7.7c0-4.3,3.5-7.7,7.7-7.7h19.7C211.2,172.6,214.7,176.1,214.7,180.4z M39.1,178.2c0-4.3,3.5-7.7,7.7-7.7h36.8 c4.3,0,7.7,3.5,7.7,7.7c0,4.3-3.5,7.7-7.7,7.7H46.9C42.6,185.9,39.1,182.4,39.1,178.2z M166.2,71c-4.3,0-7.7-3.5-7.7-7.7V26.5 c0-4.3,3.5-7.7,7.7-7.7c4.3,0,7.7,3.5,7.7,7.7v36.8C173.9,67.5,170.4,71,166.2,71z M106.2,220.2c0,4.3,3.5,7.7,7.7,7.7 c4.3,0,7.7-3.5,7.7-7.7c0-4.3-3.5-7.7-7.7-7.7C109.7,212.5,106.2,215.9,106.2,220.2z M188,136.6c23.5,0,42.6,19.1,42.6,42.6 c0,23.5-19.1,42.6-42.6,42.6c-23.5,0-42.6-19.1-42.6-42.6C145.4,155.7,164.5,136.6,188,136.6 M188,121.2c-32.1,0-58,25.9-58,58 c0,32.1,25.9,58,58,58c32.1,0,58-25.9,58-58C246,147.1,220.1,121.2,188,121.2z M114.5,212.5h-72c-9.4,0-17.3-7.7-17.3-17.3V62.7 c0-9.4,7.7-17.3,17.3-17.3h145.6c9.4,0,17.3,7.7,17.3,17.3v44.8h15.2V63.4c0-18.3-14.8-33.1-33.1-33.1H43.3 C25,30.2,10,45.1,10,63.4v131.2c0,18.3,14.8,33.1,33.1,33.1h71.3V212.5z"/></g>
</svg>